<?xml version="1.0" encoding="UTF-8"?>
<svg width="14px" height="29px" viewBox="0 0 14 29" version="1.1" xmlns="http://www.w3.org/2000/svg" xmlns:xlink="http://www.w3.org/1999/xlink">
    <!-- Generator: Sketch 58 (84663) - https://sketch.com -->
    <title>Assets/Icons/Recipes/Serves</title>
    <desc>Created with Sketch.</desc>
    <g id="Assets/Icons/Recipes/Serves" stroke="none" stroke-width="1" fill="none" fill-rule="evenodd">
        <g id="noun_Fork-&amp;-knife_2463769" fill="#000000" fill-rule="nonzero">
            <path d="M8.87825499,0.350205278 C8.67522438,0.345624395 8.50097082,0.493975398 8.47320513,0.695153134 L8.47320513,26.6949751 C8.47579235,27.4620453 9.08585257,28.0890516 9.8525641,28.1126496 L9.89087963,28.1126496 C10.6565921,28.1126496 11.2781713,27.4935234 11.2811859,26.727817 L11.2811859,14.8335826 C12.3577551,14.6403453 13.126565,13.682254 13.0820157,12.5893875 L13.0820157,4.66902066 C13.1039921,3.53691908 12.6718669,2.44313068 11.8820702,1.63173798 C11.0922735,0.820345276 10.0105375,0.35887774 8.87825499,0.350205278 Z M12.2828632,12.5893875 C12.3147941,12.9878374 12.1796169,13.3816245 11.9096994,13.6764575 C11.6397819,13.9712904 11.2594289,14.1406209 10.8597151,14.1439031 C10.6612127,14.1402767 10.4937907,14.2909565 10.4765598,14.4887429 L10.4765598,26.7332906 C10.4968009,26.9117252 10.4411944,27.0904603 10.3232977,27.2259188 C10.2154729,27.3555388 10.0539284,27.4282338 9.88540598,27.4229701 C9.70547131,27.4119739 9.5377932,27.3281074 9.42107137,27.1907268 C9.30434954,27.0533463 9.24867016,26.874323 9.2668839,26.6949751 L9.2668839,1.05641382 C11.0731873,1.22609687 12.271916,2.69850783 12.271916,4.66902066 L12.271916,12.5893875 L12.2828632,12.5893875 Z" id="Shape"></path>
            <path d="M6.66693867,7.41679131 L6.66693867,6.17974715 L6.66693867,6.17974715 L6.53006054,1.34104345 C6.53694384,1.06406899 6.43243988,0.795907882 6.23995726,0.596627493 C6.07055488,0.431682895 5.84133362,0.342760857 5.60501425,0.35031339 C5.35156458,0.362791713 5.11404299,0.477641692 4.94687002,0.668549102 C4.77969704,0.859456512 4.69720108,1.11005866 4.71828348,1.36293803 L4.63070513,5.70353989 C4.63070513,5.81848647 4.60333689,5.87869658 4.54312678,5.87869658 C4.48291667,5.87869658 4.45554843,5.81848647 4.45554843,5.70353989 L4.45554843,5.70353989 L4.28586538,1.36293803 C4.30539441,1.11041043 4.22234994,0.860665632 4.05548992,0.670115616 C3.88862991,0.4795656 3.65203057,0.36428506 3.39913462,0.35031339 C3.15408521,0.332214588 2.91300944,0.419878504 2.73682336,0.591153846 C2.54434075,0.790434235 2.43983679,1.05859534 2.44672009,1.3355698 L2.27156339,5.71448718 L2.27156339,5.71448718 C2.27156339,5.82943376 2.24419516,5.88964387 2.18398504,5.88964387 C2.12377493,5.88964387 2.0964067,5.82943376 2.0964067,5.70901353 L2.03619658,1.36841168 C2.05727662,1.11498085 1.97493582,0.863801138 1.80791252,0.672033643 C1.64088922,0.480266147 1.40339113,0.364223431 1.14946581,0.35031339 C0.912927861,0.341469737 0.683215872,0.430582146 0.514522792,0.596627493 C0.322040181,0.795907882 0.21753622,1.06406899 0.224419516,1.34104345 L0.0547364672,6.16879986 L0.0547364672,7.41679131 C0.056602579,8.73185129 0.83021078,9.9233365 2.03072293,10.4601389 L1.87198718,26.5745548 C1.87198718,27.399837 2.54101057,28.0688604 3.36629274,28.0688604 C4.1915749,28.0688604 4.86059829,27.399837 4.86059829,26.5745548 L4.67996795,10.4710862 C5.89222992,9.940469 6.67312765,8.74008074 6.66693867,7.41679131 Z M4.2639708,9.91277422 C4.12159928,9.96042921 4.02354146,10.091173 4.0176567,10.241193 L4.1709188,26.5745548 C4.1709188,27.0189376 3.81067544,27.3791809 3.36629274,27.3791809 C2.92191003,27.3791809 2.56166667,27.0189376 2.56166667,26.5745548 L2.73682336,10.2247721 C2.71941136,10.0704489 2.61179448,9.94130861 2.46314103,9.89635328 C1.40459293,9.52403436 0.688775171,8.53323783 0.6677849,7.41131766 L0.6677849,6.1852208 L0.881257123,1.35746439 L0.881257123,1.35746439 C0.880039974,1.25962033 0.917401823,1.1652325 0.98525641,1.09472934 C1.02459867,1.06062534 1.0755642,1.04298342 1.12757123,1.04546652 C1.32462251,1.04546652 1.34104345,1.31914886 1.34104345,1.37935897 L1.42862179,5.70901353 C1.39298986,6.00872638 1.53285511,6.30222267 1.78808762,6.46332446 C2.04332013,6.62442625 2.36843913,6.62442625 2.62367164,6.46332446 C2.87890415,6.30222267 3.0187694,6.00872638 2.98313746,5.70901353 L3.15829416,1.33009615 L3.15829416,1.33009615 C3.15933882,1.24386391 3.19029463,1.16067016 3.24587251,1.09472934 C3.28291599,1.06042702 3.33230617,1.04264655 3.38271368,1.04546652 C3.57976496,1.04546652 3.59071225,1.31914886 3.59071225,1.37388533 L3.59071225,1.37388533 L3.76586895,5.70353989 C3.73023701,6.00325273 3.87010226,6.29674902 4.12533477,6.45785081 C4.38056728,6.61895261 4.70568628,6.61895261 4.96091879,6.45785081 C5.21615131,6.29674902 5.35601655,6.00325273 5.32038462,5.70353989 L5.40796296,1.36841168 C5.40796296,1.31367521 5.40796296,1.04546652 5.61596154,1.03999288 C5.66655917,1.03580549 5.71648431,1.05377854 5.75280271,1.0892557 C5.811411,1.16170761 5.84070924,1.25350876 5.83490741,1.34651709 L5.86227564,1.34651709 L6.06480057,6.1742735 L6.06480057,7.40037037 C6.06093429,8.53592351 5.33810794,9.54436512 4.2639708,9.91277422 Z" id="Shape"></path>
        </g>
    </g>
</svg>