<?xml version="1.0" encoding="UTF-8"?>
<svg width="15px" height="26px" viewBox="0 0 15 26" version="1.1" xmlns="http://www.w3.org/2000/svg" xmlns:xlink="http://www.w3.org/1999/xlink">
    <!-- Generator: Sketch 58 (84663) - https://sketch.com -->
    <title>Group 5</title>
    <desc>Created with Sketch.</desc>
    <g id="Symbols" stroke="none" stroke-width="1" fill="none" fill-rule="evenodd">
        <g id="Assets/Icons/Recipes/Time" fill-rule="nonzero">
            <g id="Group-5">
                <path d="M13.6067708,19.1071377 C13.6067708,19.1542315 13.6058769,19.2011645 13.6041014,19.2479272 L13.6067708,19.2479272 L13.6067708,24.5875 L1.3265625,24.5875 L1.3265625,19.2479272 L1.32923191,19.2479272 C1.32745642,19.2011645 1.3265625,19.1542315 1.3265625,19.1071377 C1.3265625,17.0826278 5.88084393,14.7910156 5.88084393,13.1208333 C5.88084393,11.2742188 1.3265625,9.1590389 1.3265625,7.134529 C1.3265625,7.0874352 1.32745642,7.04050219 1.32923191,6.99373948 L1.3265625,6.99373948 L1.3265625,1.65416667 L13.6067708,1.65416667 L13.6067708,6.99373948 L13.6041014,6.99373948 C13.6058769,7.04050219 13.6067708,7.0874352 13.6067708,7.134529 C13.6067708,9.1590389 9.0524894,11.3299479 9.0524894,13.1208333 C9.0524894,14.8195313 13.6067708,17.0826278 13.6067708,19.1071377 Z" id="Path" stroke="#202020" stroke-width="0.8" stroke-linejoin="round"></path>
                <rect id="Rectangle" fill="#202020" x="4.93827201e-13" y="0.769010417" width="14.9333333" height="1" rx="0.5"></rect>
                <rect id="Rectangle-Copy" fill="#202020" x="4.93827201e-13" y="24.5875" width="14.9333333" height="1" rx="0.5"></rect>
                <path d="M1.3265625,5.94036458 C3.17569444,7.08376736 4.93550347,7.65546875 6.60598958,7.65546875 C9.11171875,7.65546875 10.5713542,4.62083333 13.6067708,4.62083333" id="Path-3" stroke="#202020" stroke-width="0.8"></path>
                <path d="M1.3265625,20.8518229 L13.6067708,20.8518229" id="Path-3-Copy" stroke="#202020" stroke-width="0.8"></path>
            </g>
        </g>
    </g>
</svg>